<svg id="图层_1" data-name="图层 1" xmlns="http://www.w3.org/2000/svg" xmlns:xlink="http://www.w3.org/1999/xlink" viewBox="0 0 442.88 444.26"><defs><style>.cls-1{fill:none;}.cls-2{clip-path:url(#clip-path);}.cls-3{fill:#fbfbfb;}</style><clipPath id="clip-path" transform="translate(-2172.63 -317.74)"><rect class="cls-1" x="2172.63" y="317.04" width="442.84" height="445.92"/></clipPath></defs><g class="cls-2"><path class="cls-3" d="M2197.83,368.16H2590.3c12.6,0,25.2-9.46,25.2-25.21s-12.6-25.21-25.2-25.21H2197.83c-15.75,0-25.2,9.46-25.2,25.21s12.6,25.21,25.2,25.21ZM2590.3,516.24H2197.83c-15.75,0-25.2,9.45-25.2,25.21s12.6,25.2,25.2,25.2H2590.3c12.6,0,25.2-9.45,25.2-25.2s-12.6-25.21-25.2-25.21Zm0,195.35H2197.83c-15.75,0-25.2,9.45-25.2,25.2s12.6,25.21,25.2,25.21H2590.3c12.6,0,25.2-9.45,25.2-25.21s-12.6-25.2-25.2-25.2Zm0,0" transform="translate(-2172.63 -317.74)"/></g></svg>