<svg id="图层_1" data-name="图层 1" xmlns="http://www.w3.org/2000/svg" viewBox="0 0 716.8 716.8"><defs><style>.cls-1{fill:#fff;}</style></defs><path class="cls-1" d="M155.4-213c197.94,0,358.4,160.46,358.4,358.4S353.34,503.8,155.4,503.8-203,343.34-203,145.4-42.54-213,155.4-213ZM427.88,287.4H306q-31.75,80.88-99.24,160.92h0c96.34-16.2,177.45-77.25,221.15-160.93Zm-423.63,0H-117.08c43.6,83.49,124.43,144.44,220.47,160.82h0q-67.34-80-99.14-160.81Zm253.18,0H52.79q33.43,75.54,102.32,152,68.26-75.69,101.64-150.46l.68-1.51ZM-11.21,48.2H-136.1a308.74,308.74,0,0,0,0,194.4H-10.58a372.53,372.53,0,0,1-1-192.88Zm286.11,0H35.32A335,335,0,0,0,21,144.2a335.76,335.76,0,0,0,15,98.4H274.18a335.76,335.76,0,0,0,15-98.4,335,335,0,0,0-14.32-96Zm172,0H321.43a376.13,376.13,0,0,1,12.59,96,377.27,377.27,0,0,1-13.22,98.4H446.9a308.83,308.83,0,0,0,0-194.4ZM101-157l-.32.06C5.86-139.91-73.89-79.31-117.08,3.4H3.31Q34.44-77.21,101-157Zm54.07,6L154-149.74Q84.79-72.68,51.74,3.4H258.48Q225.09-73.32,155.11-151Zm54-6.16,1.1,1.31Q275.94-76.62,306.91,3.4h121c-43.34-83-123.5-143.73-218.8-160.52Zm0,0" transform="translate(203 213)"/></svg>